#!OML:ASF H:\Dans Jumps\Project 1\Capture day 1\Session 1\subject.ASF
:FULLY-SPECIFIED
:DEGREES
354
root 0.371579 13.8221 -16.5421 34.3891 0.293022 -1.57372
lowerback 34.5989 1.06037 -1.22349
upperback 6.42765 1.20989 2.57696
thorax -10.542 0.576562 2.92955
lowerneck -20.3524 0.30144 -1.98067
upperneck -8.45093 0.80723 -1.92838
head 0.656239 0.417286 -0.227163
rclavicle -6.36111e-015 6.55989e-015
rhumerus -59.5192 -17.7034 -61.8722
rradius 25.7281
rwrist 28.7917
rhand -16.7491 -21.2874
rfingers 7.12502
rthumb 9.4774 -51.0543
lclavicle -6.36111e-015 6.55989e-015
lhumerus -59.5608 2.65302 82.204
lradius 16.8435
lwrist 16.6229
lhand -26.5696 -6.31882
lfingers 7.12502
lthumb -0.00443834 23.6609
rfemur -90.1607 -2.30239 21.2218
rtibia 84.0232
rfoot -27.3821 -10.2857
rtoes 0.247332
lfemur -90.2396 6.3404 -22.9668
ltibia 83.4082
lfoot -24.063 13.9049
ltoes -11.4584
355
root 0.363755 13.7754 -16.5322 34.5607 0.332463 -1.55704
lowerback 35.6366 1.13671 -1.30925
upperback 6.3044 1.27133 2.59738
thorax -10.9559 0.606961 2.97511
lowerneck -20.3032 0.274913 -1.91385
upperneck -8.94958 0.743966 -1.97773
head 0.480491 0.389858 -0.259591
rclavicle 1.98785e-016 1.47101e-014
rhumerus -60.1837 -17.78 -61.4244
rradius 25.362
rwrist 29.3711
rhand -16.659 -21.1602
rfingers 7.12502
rthumb 9.56441 -50.9231
lclavicle 1.98785e-016 1.47101e-014
lhumerus -60.0797 2.95863 81.8501
lradius 16.5048
lwrist 16.2294
lhand -26.2318 -6.28407
lfingers 7.12502
lthumb 0.321912 23.6954
rfemur -90.6348 -2.34491 21.3111
rtibia 84.5748
rfoot -27.7632 -10.4294
rtoes 0.216844
lfemur -90.7277 6.40165 -23.0587
ltibia 83.9416
lfoot -24.3348 14.1143
ltoes -11.8331
356
root 0.356014 13.7311 -16.5187 34.6941 0.343538 -1.56185
lowerback 36.6032 1.22831 -1.40434
upperback 6.26049 1.34642 2.61998
thorax -11.3708 0.643752 3.01352
lowerneck -20.2858 0.24005 -1.88035
upperneck -9.39484 0.679231 -1.9908
head 0.328049 0.362402 -0.274493
rclavicle 5.36719e-015 6.65929e-015
rhumerus -60.7731 -17.8457 -61.0033
rradius 24.9957
rwrist 29.9834
rhand -16.5183 -21.0136
rfingers 7.12502
rthumb 9.70013 -50.7702
lclavicle 5.36719e-015 6.65929e-015
lhumerus -60.5424 3.2168 81.5224
lradius 16.181
lwrist 15.736
lhand -25.8698 -6.19603
lfingers 7.12502
lthumb 0.671457 23.7827
rfemur -91.0349 -2.35963 21.4088
rtibia 85.0975
rfoot -28.1433 -10.579
rtoes 0.136315
lfemur -91.1441 6.50276 -23.1429
ltibia 84.4685
lfoot -24.647 14.371
ltoes -12.2794
357
root 0.34822 13.6901 -16.5008 34.7737 0.349358 -1.5907
lowerback 37.5745 1.3239 -1.48421
upperback 6.22962 1.42917 2.64307
thorax -11.7654 0.682793 3.04013
lowerneck -20.2758 0.200863 -1.87114
upperneck -9.82367 0.615145 -1.97305
head 0.182486 0.336298 -0.275272
rclavicle -9.93923e-015 -7.65321e-015
rhumerus -61.2625 -17.9131 -60.6234
rradius 24.6254
rwrist 30.551
rhand -16.3621 -20.8523
rfingers 7.12502
rthumb 9.85085 -50.6018
lclavicle -9.93923e-015 -7.65321e-015
lhumerus -60.92 3.43177 81.221
lradius 15.8645
lwrist 15.1441
lhand -25.4508 -6.03637
lfingers 7.12502
lthumb 1.07619 23.9407
rfemur -91.334 -2.35891 21.5251
rtibia 85.5919
rfoot -28.5254 -10.7435
rtoes 0.0132191
lfemur -91.4657 6.63219 -23.2021
ltibia 84.9885
lfoot -24.9986 14.6749
ltoes -12.7728
358
root 0.341913 13.6503 -16.4798 34.8506 0.339739 -1.66017
lowerback 38.4928 1.41924 -1.5292
upperback 6.19836 1.52197 2.65893
thorax -12.1339 0.724553 3.03548
lowerneck -20.2432 0.15863 -1.88258
upperneck -10.2511 0.551808 -1.92309
head 0.0341592 0.311865 -0.262249
rclavicle -5.96354e-016 2.05742e-014
rhumerus -61.6707 -17.9888 -60.2805
rradius 24.2534
rwrist 31.0405
rhand -16.2382 -20.6874
rfingers 7.12502
rthumb 9.97036 -50.4312
lclavicle -5.96354e-016 2.05742e-014
lhumerus -61.21 3.63364 80.9022
lradius 15.5331
lwrist 14.4408
lhand -24.9866 -5.83672
lfingers 7.12502
lthumb 1.52447 24.1376
rfemur -91.6037 -2.33947 21.6763
rtibia 86.0617
rfoot -28.8897 -10.9155
rtoes -0.17893
lfemur -91.7661 6.78915 -23.2302
ltibia 85.5109
lfoot -25.3574 15.0298
ltoes -13.2521
359
root 0.336365 13.6112 -16.4556 34.9558 0.342744 -1.75328
lowerback 39.3195 1.5001 -1.53749
upperback 6.16059 1.6107 2.67136
thorax -12.4702 0.76293 3.00915
lowerneck -20.1777 0.122925 -1.88354
upperneck -10.6855 0.494315 -1.87397
head -0.120923 0.29014 -0.250885
rclavicle 5.76476e-015 2.48481e-015
rhumerus -61.9924 -18.0614 -59.9909
rradius 23.8789
rwrist 31.4178
rhand -16.1705 -20.5436
rfingers 7.12502
rthumb 10.0357 -50.2843
lclavicle 5.76476e-015 2.48481e-015
lhumerus -61.4037 3.84272 80.5468
lradius 15.1737
lwrist 13.6551
lhand -24.4738 -5.6128
lfingers 7.12502
lthumb 2.01976 24.3574
rfemur -91.8806 -2.32085 21.8578
rtibia 86.5131
rfoot -29.2383 -11.1042
rtoes -0.40474
lfemur -92.0807 6.94394 -23.2307
ltibia 86.0299
lfoot -25.7054 15.4188
ltoes -13.6607
360
root 0.332214 13.5725 -16.4281 35.1139 0.350551 -1.86588
lowerback 40.0239 1.56579 -1.5142
upperback 6.10909 1.69376 2.67783
thorax -12.7743 0.797596 2.96232
lowerneck -20.0765 0.098241 -1.86294
upperneck -11.1214 0.445795 -1.84587
head -0.281119 0.271887 -0.249215
rclavicle 1.2921e-014 2.10712e-014
rhumerus -62.2385 -18.1501 -59.7214
rradius 23.4923
rwrist 31.7497
rhand -16.1959 -20.4339
rfingers 7.12502
rthumb 10.0111 -50.1758
lclavicle 1.2921e-014 2.10712e-014
lhumerus -61.4999 4.08354 80.1321
lradius 14.7718
lwrist 12.8084
lhand -23.9295 -5.38467
lfingers 7.12502
lthumb 2.54544 24.5799
rfemur -92.1913 -2.30482 22.0641
rtibia 86.9462
rfoot -29.5733 -11.3076
rtoes -0.648023
lfemur -92.4343 7.0881 -23.211
ltibia 86.5415
lfoot -26.0279 15.8326
ltoes -13.9522
361
root 0.329191 13.5364 -16.3957 35.3039 0.368209 -1.98207
lowerback 40.6276 1.61523 -1.46989
upperback 6.04322 1.76659 2.68038
thorax -13.0563 0.827052 2.90493
lowerneck -19.9559 0.0843932 -1.82603
upperneck -11.5336 0.407973 -1.83955
head -0.435574 0.257764 -0.256417
rclavicle 2.18663e-015 -3.18055e-015
rhumerus -62.412 -18.2426 -59.4724
rradius 23.1029
rwrist 32.0663
rhand -16.3065 -20.3653
rfingers 7.12502
rthumb 9.9045 -50.1123
lclavicle 2.18663e-015 -3.18055e-015
lhumerus -61.4939 4.37135 79.6461
lradius 14.3229
lwrist 11.9221
lhand -23.3804 -5.1619
lfingers 7.12502
lthumb 3.07571 24.7957
rfemur -92.4942 -2.30172 22.2807
rtibia 87.3546
rfoot -29.9077 -11.534
rtoes -0.872509
lfemur -92.7812 7.21029 -23.1789
ltibia 87.03
lfoot -26.3375 16.2552
ltoes -14.1
362
root 0.326371 13.504 -16.3573 35.5077 0.406847 -2.08788
lowerback 41.1465 1.64729 -1.4143
upperback 5.96672 1.82478 2.68275
thorax -13.319 0.849847 2.84826
lowerneck -19.8408 0.0811552 -1.77473
upperneck -11.9059 0.381987 -1.85211
head -0.575394 0.248181 -0.271175
rclavicle 4.96962e-015 -7.35503e-015
rhumerus -62.5028 -18.3476 -59.2357
rradius 22.7114
rwrist 32.4418
rhand -16.4772 -20.3413
rfingers 7.12502
rthumb 9.73976 -50.0961
lclavicle 4.96962e-015 -7.35503e-015
lhumerus -61.3831 4.71011 79.0885
lradius 13.8366
lwrist 11.0012
lhand -22.8488 -4.96062
lfingers 7.12502
lthumb 3.58915 24.9889
rfemur -92.7579 -2.31906 22.4978
rtibia 87.7359
rfoot -30.2505 -11.7833
rtoes -1.03817
lfemur -93.0882 7.30116 -23.137
ltibia 87.4842
lfoot -26.6409 16.6726
ltoes -14.1366
363
root 0.323587 13.4772 -16.3117 35.6901 0.448418 -2.17826
lowerback 41.6148 1.67357 -1.36595
upperback 5.88733 1.87369 2.6823
thorax -13.5663 0.868818 2.79665
lowerneck -19.7581 0.0750973 -1.74617
upperneck -12.2122 0.360483 -1.83738
head -0.68849 0.240936 -0.273135
rclavicle 6.16232e-015 1.95803e-014
rhumerus -62.4999 -18.4878 -58.9922
rradius 22.3163
rwrist 32.9281
rhand -16.6798 -20.3446
rfingers 7.12502
rthumb 9.54426 -50.1085
lclavicle 6.16232e-015 1.95803e-014
lhumerus -61.1579 5.09192 78.4709
lradius 13.3249
lwrist 10.0263
lhand -22.3334 -4.78624
lfingers 7.12502
lthumb 4.08683 25.1543
rfemur -92.9308 -2.3473 22.6983
rtibia 88.0824
rfoot -30.6104 -12.0351
rtoes -1.10797
lfemur -93.2994 7.3732 -23.0915
ltibia 87.8955
lfoot -26.9581 17.0748
ltoes -14.0876
364
root 0.320398 13.455 -16.2593 35.8584 0.489382 -2.25266
lowerback 42.0224 1.69969 -1.33318
upperback 5.80573 1.91678 2.68101
thorax -13.7953 0.885948 2.7552
lowerneck -19.7233 0.0586538 -1.75647
upperneck -12.4457 0.337978 -1.77569
head -0.770694 0.233914 -0.253725
rclavicle 7.95139e-016 3.42904e-015
rhumerus -62.3935 -18.6763 -58.7303
rradius 21.9222
rwrist 33.5526
rhand -16.8355 -20.3574
rfingers 7.12502
rthumb 9.39404 -50.1281
lclavicle 7.95139e-016 3.42904e-015
lhumerus -60.8156 5.52443 77.7884
lradius 12.8016
lwrist 8.9295
lhand -21.8396 -4.63673
lfingers 7.12502
lthumb 4.56361 25.2941
rfemur -93.0306 -2.37925 22.8786
rtibia 88.3976
rfoot -30.9797 -12.2776
rtoes -1.10162
lfemur -93.4325 7.43361 -23.0467
ltibia 88.2681
lfoot -27.2909 17.4456
ltoes -13.9971
